<?xml version="1.0" standalone="no"?>
<!DOCTYPE svg PUBLIC "-//W3C//DTD SVG 20010904//EN"
 "http://www.w3.org/TR/2001/REC-SVG-20010904/DTD/svg10.dtd">
<svg version="1.0" xmlns="http://www.w3.org/2000/svg"
 width="566.000000pt" height="372.000000pt" viewBox="0 0 566.000000 372.000000"
 preserveAspectRatio="xMidYMid meet">

<g transform="translate(0.000000,372.000000) scale(0.100000,-0.100000)"
fill="darkred" stroke="none">
<path d="M2753 3063 c-7 -3 -13 -11 -13 -19 0 -7 -11 -47 -25 -88 -14 -41 -25
-91 -25 -111 0 -31 4 -38 32 -49 35 -15 76 -8 92 16 7 11 3 45 -12 115 -12 54
-22 106 -22 115 0 20 -10 27 -27 21z"/>
<path d="M2370 2953 c0 -90 3 -113 20 -140 16 -27 26 -33 54 -33 93 0 89 41
-24 223 -19 31 -38 57 -42 57 -5 0 -8 -48 -8 -107z"/>
<path d="M2573 3052 c-14 -9 -38 -182 -29 -216 9 -37 46 -59 80 -47 22 9 26
17 26 48 0 29 -52 208 -64 220 -1 1 -7 -1 -13 -5z"/>
<path d="M2953 3037 c-26 -34 -103 -190 -103 -210 0 -40 77 -62 111 -31 15 14
19 13 42 -10 46 -46 103 -26 126 44 16 49 27 214 14 209 -15 -6 -77 -85 -114
-147 -17 -29 -34 -50 -38 -47 -3 4 -8 55 -11 113 l-5 107 -22 -28z"/>
<path d="M2194 3013 c16 -66 25 -121 25 -163 1 -61 23 -90 66 -90 93 0 89 31
-27 191 -26 37 -48 72 -48 78 0 6 -5 11 -11 11 -7 0 -9 -10 -5 -27z"/>
<path d="M3284 2967 c-106 -113 -146 -176 -125 -201 18 -21 61 -29 92 -16 28
12 38 33 67 145 6 22 15 57 20 77 6 21 7 40 3 43 -4 2 -30 -19 -57 -48z"/>
<path d="M2007 2993 c-9 -15 60 -204 84 -229 19 -20 31 -24 63 -22 50 4 67 27
46 62 -15 24 -177 196 -185 196 -2 0 -6 -3 -8 -7z"/>
<path d="M3439 2929 c-47 -50 -129 -163 -129 -178 1 -15 17 -28 43 -35 39 -9
78 34 102 111 9 32 24 78 31 102 8 24 12 46 9 49 -3 3 -28 -19 -56 -49z"/>
<path d="M1820 2955 c0 -2 16 -37 35 -76 19 -40 35 -78 35 -85 0 -8 20 -35 45
-60 40 -42 47 -46 77 -40 69 14 64 51 -19 123 -37 32 -87 77 -112 100 -42 39
-61 51 -61 38z"/>
<path d="M3644 2908 c-17 -13 -69 -56 -117 -96 -92 -77 -109 -110 -68 -132 59
-31 108 5 161 115 41 87 62 135 57 135 -2 0 -17 -10 -33 -22z"/>
<path d="M1660 2896 c0 -12 123 -186 150 -211 27 -26 33 -28 67 -19 20 5 38
15 41 22 2 7 -22 38 -54 68 -88 84 -204 163 -204 140z"/>
<path d="M3790 2849 c-25 -22 -65 -54 -90 -72 -77 -53 -120 -91 -120 -107 0
-26 22 -40 61 -40 39 0 77 29 102 79 28 53 59 105 83 136 45 59 27 61 -36 4z"/>
<path d="M1477 2853 c4 -10 24 -36 44 -58 20 -22 55 -62 77 -90 59 -75 74 -86
125 -87 25 0 50 3 56 6 21 13 11 45 -21 69 -36 27 -186 117 -195 117 -4 0 -20
10 -37 23 -50 38 -57 40 -49 20z"/>
<path d="M3955 2794 c-11 -8 -54 -35 -95 -60 -41 -24 -93 -60 -115 -78 -40
-34 -40 -34 -21 -55 46 -51 105 -17 201 113 16 23 40 51 52 62 13 12 23 24 23
28 0 11 -24 6 -45 -10z"/>
<path d="M1346 2782 c-3 -5 6 -18 20 -28 14 -11 48 -47 75 -81 37 -47 63 -69
104 -88 66 -30 76 -31 106 -6 l23 18 -45 33 c-24 17 -82 52 -129 76 -47 24
-99 53 -117 64 -17 11 -34 17 -37 12z"/>
<path d="M4145 2751 c-6 -5 -66 -38 -135 -73 -191 -98 -210 -115 -155 -140 29
-13 84 0 125 29 21 16 155 148 182 181 12 14 -3 17 -17 3z"/>
<path d="M1190 2712 c0 -9 77 -68 133 -101 53 -32 126 -96 102 -88 -11 3 -47
15 -80 27 -114 42 -197 62 -209 50 -8 -8 -7 -14 5 -20 37 -21 139 -102 139
-111 0 -5 10 -9 22 -9 12 0 18 -3 15 -7 -4 -3 -40 4 -80 16 -146 46 -223 72
-244 83 -13 6 -26 8 -30 3 -5 -4 -3 -10 4 -12 6 -2 31 -19 55 -37 69 -52 141
-102 163 -111 19 -8 19 -8 1 -13 -11 -2 -35 0 -55 6 -88 25 -229 54 -242 50
-8 -3 2 -12 26 -23 71 -34 175 -96 175 -106 0 -11 -106 -1 -132 12 -9 5 -32 9
-51 9 -19 0 -48 5 -65 11 -17 6 -43 9 -59 7 -25 -4 -26 -5 -8 -12 11 -5 44
-19 73 -32 29 -13 59 -24 67 -24 7 0 17 -4 20 -10 3 -5 16 -10 28 -10 12 0 30
-7 40 -14 14 -11 2 -13 -80 -9 -54 3 -122 9 -152 14 -70 12 -84 11 -76 -1 3
-5 16 -10 29 -10 12 0 26 -4 32 -9 5 -4 51 -23 103 -40 146 -50 144 -52 -36
-45 -112 5 -163 3 -163 -4 0 -6 10 -13 23 -17 69 -18 111 -31 187 -56 l85 -28
-155 -1 c-85 -1 -164 -5 -175 -10 -22 -8 -28 -6 80 -30 222 -49 230 -69 30
-71 -95 0 -149 -9 -129 -21 5 -3 55 -14 111 -24 56 -10 100 -20 97 -23 -6 -7
-100 -20 -196 -27 -43 -4 -78 -10 -78 -14 0 -9 305 -40 393 -40 75 0 89 11 68
57 -10 22 -10 28 3 35 22 13 20 33 -6 50 l-23 15 33 17 c36 19 38 23 17 53
-14 20 -13 23 15 40 37 21 38 45 4 72 l-27 21 40 0 c25 0 46 6 54 16 11 14 10
19 -8 34 -26 21 -20 30 18 30 15 0 34 3 43 6 22 8 20 41 -1 47 -10 3 -2 5 18
6 70 2 101 59 45 81 -15 6 -1 9 47 9 73 1 92 15 68 52 -10 17 -8 19 32 19 48
0 67 13 67 47 0 20 5 23 44 23 45 0 73 19 63 42 -5 13 -105 66 -167 89 -44 16
-139 57 -162 69 -21 12 -28 12 -28 2z"/>
<path d="M4200 2629 c-36 -17 -100 -44 -144 -59 -43 -16 -87 -37 -98 -47 -19
-17 -19 -18 2 -35 46 -38 97 -16 248 105 98 79 97 85 -8 36z"/>
<path d="M4370 2570 c0 -5 -12 -10 -27 -10 -59 -1 -276 -87 -286 -114 -3 -8 2
-21 12 -30 19 -17 91 -22 91 -6 0 6 9 10 19 10 11 0 21 3 23 8 2 4 39 31 83
61 44 29 82 58 83 62 2 5 10 9 18 9 8 0 14 5 14 10 0 6 -7 10 -15 10 -8 0 -15
-4 -15 -10z"/>
<path d="M4485 2493 c-97 -28 -111 -32 -195 -53 -102 -26 -136 -43 -145 -71
-9 -27 2 -37 45 -41 33 -3 35 -5 32 -35 -3 -28 1 -33 23 -39 50 -12 117 6 246
68 122 59 163 89 102 74 -16 -4 -46 -11 -68 -16 -55 -14 -197 -40 -213 -40
-10 0 -10 3 2 15 8 8 17 15 20 15 2 0 43 24 90 53 48 28 95 56 106 62 11 5 20
13 20 17 0 10 -2 9 -65 -9z"/>
<path d="M838 2453 c7 -3 16 -2 19 1 4 3 -2 6 -13 5 -11 0 -14 -3 -6 -6z"/>
<path d="M2558 2407 c-36 -7 -70 -15 -74 -19 -4 -5 -13 -8 -21 -8 -17 0 -111
-57 -146 -89 -41 -37 -87 -106 -87 -130 0 -28 18 -27 29 2 13 31 68 81 121
108 54 28 160 37 217 19 62 -21 173 -99 173 -122 0 -11 -91 1 -104 13 -14 13
-66 11 -66 -2 0 -6 7 -8 16 -5 23 9 54 -2 54 -20 0 -8 18 -21 39 -30 66 -26
71 -43 70 -211 0 -81 -4 -212 -7 -290 -6 -122 -10 -146 -28 -170 -43 -58 -78
-37 -131 76 -19 40 -41 101 -49 135 -9 33 -24 88 -35 120 -29 90 -27 227 5
292 13 28 31 56 40 63 21 18 20 31 -1 31 -42 -1 -155 -141 -193 -240 -8 -19
-24 -54 -37 -77 -13 -23 -23 -49 -23 -58 0 -10 -7 -15 -17 -13 -18 3 -31 40
-88 238 -33 114 -51 142 -107 165 -35 14 -59 16 -126 10 -95 -8 -99 -18 -9
-25 56 -5 63 -8 84 -39 20 -29 23 -46 22 -120 0 -47 -4 -108 -9 -136 -6 -27
-13 -74 -16 -103 -4 -29 -11 -55 -15 -58 -5 -3 -9 -14 -9 -24 0 -18 -23 -75
-69 -169 -62 -130 -216 -188 -334 -126 -50 27 -54 24 -34 -32 16 -41 61 -91
95 -104 15 -6 45 -8 68 -4 69 10 171 124 241 271 48 99 103 294 103 365 0 27
4 39 12 37 15 -5 38 -63 73 -183 65 -217 86 -261 93 -190 4 38 57 205 84 263
37 82 43 80 56 -27 22 -171 65 -304 126 -384 14 -19 26 -41 26 -50 0 -30 72
-78 159 -106 38 -12 151 -15 151 -3 0 4 -13 13 -29 20 -15 7 -54 36 -85 65
-82 75 -75 83 70 79 l115 -3 -15 30 c-12 23 -16 63 -16 170 0 77 4 142 8 145
5 3 36 -27 70 -67 78 -92 403 -421 462 -469 56 -44 154 -98 180 -98 10 0 22
-4 25 -10 3 -5 36 -10 72 -10 80 0 138 29 183 92 40 55 42 127 5 164 -19 19
-31 23 -48 18 -31 -9 -32 -11 -19 -39 17 -36 15 -120 -3 -154 -18 -35 -70 -61
-125 -61 -49 0 -141 43 -206 96 -100 82 -514 570 -514 605 0 30 265 267 331
296 21 9 36 20 33 25 -3 4 -101 8 -219 8 l-213 0 -95 63 c-95 61 -113 84 -66
80 100 -7 292 -4 329 6 93 24 126 36 168 64 46 31 59 65 20 50 -28 -10 -239
-10 -488 -1 -127 4 -206 3 -252 -5z m652 -305 c0 -22 -267 -275 -282 -266 -13
8 -4 177 12 220 23 60 33 64 157 64 101 0 113 -2 113 -18z"/>
<path d="M4685 2302 c-6 -5 -62 -16 -125 -26 -215 -33 -274 -52 -248 -83 10
-12 26 -14 83 -8 86 8 89 9 95 15 3 3 31 14 63 24 83 25 177 68 171 78 -7 10
-27 10 -39 0z"/>
<path d="M4570 2194 c-91 -9 -175 -28 -193 -44 -19 -18 -19 -18 2 -39 12 -12
28 -21 36 -21 8 0 15 -5 15 -10 0 -6 -7 -13 -15 -16 -25 -10 -17 -42 15 -59
33 -17 38 -32 15 -41 -23 -9 -18 -32 13 -51 15 -9 29 -19 32 -21 3 -2 -3 -8
-13 -13 -18 -11 -24 -49 -7 -49 16 0 11 -32 -7 -46 -17 -12 -17 -14 -1 -30 16
-16 35 -18 155 -16 216 3 350 35 202 47 -47 4 -112 13 -145 20 l-59 12 50 7
c49 6 144 20 219 31 65 10 31 19 -107 28 -73 4 -159 11 -192 15 -68 9 -66 10
90 32 44 7 100 18 124 26 25 8 56 14 70 14 23 1 24 2 8 11 -11 7 -41 8 -78 4
-64 -8 -269 3 -269 14 0 7 14 11 185 56 55 15 109 30 120 35 12 5 -58 7 -165
4 -169 -5 -183 -4 -166 10 11 9 27 16 35 16 9 0 48 12 86 25 39 14 80 25 92
25 27 0 38 16 17 24 -16 6 -97 6 -164 0z"/>
<path d="M1687 2081 c-64 -71 -87 -128 -87 -223 0 -120 62 -237 119 -223 47
11 47 23 4 68 -101 103 -102 287 -1 388 19 19 24 29 15 29 -8 0 -31 -18 -50
-39z"/>
<path d="M677 1726 c-37 -7 -70 -15 -73 -19 -3 -3 16 -8 43 -11 26 -3 78 -10
116 -16 37 -5 81 -10 97 -10 16 0 31 -4 34 -9 6 -9 -68 -31 -106 -31 -40 0
-198 -33 -198 -42 0 -4 28 -8 63 -8 34 0 113 -3 174 -7 93 -5 111 -8 102 -20
-6 -7 -23 -13 -38 -13 -51 -1 -209 -37 -232 -54 -23 -16 -18 -16 100 -14 89 2
125 0 128 -9 3 -7 -11 -15 -34 -19 -21 -3 -63 -13 -93 -21 -30 -9 -70 -18 -88
-20 -18 -3 -35 -9 -38 -14 -11 -19 32 -22 155 -11 69 7 158 13 196 14 50 1 73
6 82 17 20 26 15 38 -19 51 -30 10 -31 12 -15 24 24 19 21 41 -10 61 -23 15
-24 19 -10 27 22 12 22 46 0 70 -15 17 -15 19 1 31 11 8 17 23 14 38 l-3 24
-140 2 c-77 0 -170 -5 -208 -11z"/>
<path d="M4503 1690 c-27 -11 -30 -36 -7 -61 15 -16 14 -19 -5 -40 -14 -16
-18 -27 -11 -39 16 -29 378 -36 406 -7 3 3 -14 8 -38 12 -46 7 -116 20 -188
36 -70 16 -72 29 -4 29 32 0 106 7 164 15 58 8 112 15 120 15 13 0 13 1 0 10
-8 5 -49 10 -91 10 -41 0 -100 4 -130 9 -90 16 -193 21 -216 11z"/>
<path d="M4457 1492 c-15 -16 -15 -20 -1 -40 16 -24 19 -21 -31 -37 -17 -5
-20 -31 -5 -40 17 -10 11 -25 -9 -25 -10 0 -29 -9 -42 -19 -23 -18 -23 -20 -6
-38 23 -27 22 -30 -17 -37 -42 -8 -63 -30 -47 -49 13 -16 57 -30 161 -52 41
-9 91 -20 111 -26 48 -12 89 -12 89 1 0 6 -8 13 -17 16 -10 3 -46 19 -81 35
-35 16 -66 29 -70 29 -4 0 -20 9 -37 21 l-30 21 90 -7 c50 -3 125 -13 168 -20
78 -14 112 -11 101 6 -3 5 -16 9 -30 9 -13 0 -32 4 -42 9 -9 6 -51 22 -92 36
-108 39 -130 49 -130 59 0 5 23 6 53 2 102 -13 292 -19 282 -9 -10 10 -140 52
-187 60 -16 3 -28 9 -28 14 0 11 17 12 143 9 53 -1 97 2 97 7 0 4 -60 21 -132
36 -73 16 -147 32 -164 38 -46 14 -79 11 -97 -9z"/>
<path d="M990 1369 c-30 -13 -140 -47 -195 -60 -22 -6 -44 -14 -50 -20 -5 -5
-19 -9 -32 -9 -13 0 -23 -5 -23 -11 0 -8 16 -9 53 -5 28 4 97 12 152 17 219
20 230 23 223 71 -3 20 -9 23 -53 25 -27 1 -61 -3 -75 -8z"/>
<path d="M1050 1280 c-30 -17 -83 -40 -95 -40 -6 0 -29 -8 -51 -19 -21 -10
-55 -25 -74 -33 -19 -9 -46 -20 -60 -26 l-25 -11 25 0 c26 -1 160 19 265 39
33 7 74 14 90 17 30 5 65 29 65 44 0 4 -7 15 -16 23 -17 17 -98 21 -124 6z"/>
<path d="M1060 1160 c-41 -22 -76 -45 -78 -50 -5 -13 65 -13 147 1 67 12 131
34 131 47 -1 23 -23 36 -72 38 -46 3 -63 -2 -128 -36z"/>
<path d="M4243 1173 c-26 -5 -36 -28 -23 -54 10 -17 7 -19 -23 -19 -18 0 -42
-7 -53 -15 -18 -15 -19 -15 0 -29 17 -14 14 -15 -35 -18 -43 -2 -55 -7 -57
-21 -7 -34 33 -59 163 -103 44 -15 84 -31 89 -36 6 -4 20 -8 32 -8 13 0 26 -4
29 -10 3 -5 10 -10 16 -10 5 0 9 5 9 10 0 6 -7 10 -15 10 -8 0 -15 4 -15 9 0
4 -24 25 -52 45 -135 93 -151 106 -128 106 23 0 233 -64 262 -80 21 -12 58
-13 58 -2 -1 8 -72 55 -142 93 -60 33 -44 40 61 27 41 -5 79 -7 84 -5 6 2 -18
18 -52 36 -35 18 -77 40 -95 50 -35 20 -80 29 -113 24z"/>
<path d="M1210 1104 c-41 -13 -81 -24 -89 -24 -7 0 -42 -20 -77 -45 -34 -25
-67 -45 -73 -45 -6 0 -11 -4 -11 -10 0 -14 3 -13 84 11 39 12 87 25 106 30 19
5 69 19 110 32 60 19 76 28 78 45 2 14 -2 22 -11 22 -9 0 -21 2 -29 4 -7 3
-47 -6 -88 -20z"/>
<path d="M4675 1110 c3 -5 12 -7 20 -3 21 7 19 13 -6 13 -11 0 -18 -4 -14 -10z"/>
<path d="M833 1063 c9 -2 23 -2 30 0 6 3 -1 5 -18 5 -16 0 -22 -2 -12 -5z"/>
<path d="M1340 1063 c-28 -5 -250 -151 -250 -164 0 -12 -6 -13 85 16 44 14 98
30 120 36 63 17 113 40 131 60 14 16 14 19 -5 38 -21 21 -32 23 -81 14z"/>
<path d="M1433 983 c-18 -10 -56 -38 -84 -63 -29 -25 -62 -52 -73 -60 -56 -39
-69 -68 -18 -40 9 5 46 19 82 31 161 53 235 110 181 139 -28 14 -52 13 -88 -7z"/>
<path d="M3962 969 c-37 -14 -24 -46 28 -74 98 -52 240 -117 250 -113 16 5
-188 188 -209 188 -11 0 -25 2 -33 4 -7 3 -23 1 -36 -5z"/>
<path d="M1542 920 c-18 -11 -47 -37 -64 -58 -18 -20 -56 -60 -85 -89 -28 -29
-48 -55 -43 -58 5 -3 11 -1 15 5 3 6 63 38 132 72 69 35 136 73 150 86 24 22
24 24 8 43 -23 25 -71 24 -113 -1z"/>
<path d="M3834 899 c-19 -21 -19 -21 8 -42 39 -30 268 -161 273 -155 10 9
-153 183 -192 206 -33 18 -67 15 -89 -9z"/>
<path d="M1058 883 c7 -3 16 -2 19 1 4 3 -2 6 -13 5 -11 0 -14 -3 -6 -6z"/>
<path d="M1685 870 c-11 -4 -51 -43 -89 -85 -39 -43 -76 -84 -84 -92 -8 -8
-12 -16 -10 -19 9 -8 288 136 295 152 15 39 -57 67 -112 44z"/>
<path d="M3706 847 c-15 -11 -16 -18 -8 -34 13 -24 32 -36 137 -93 44 -23 94
-51 111 -61 47 -29 48 -11 1 39 -140 152 -152 162 -188 162 -19 0 -43 -6 -53
-13z"/>
<path d="M1802 798 c-48 -53 -142 -167 -142 -173 0 -11 27 -3 57 18 104 72
192 138 197 146 10 16 -23 41 -54 41 -19 0 -38 -10 -58 -32z"/>
<path d="M3602 812 c-28 -4 -37 -24 -23 -50 6 -10 52 -47 102 -82 51 -34 102
-71 113 -81 40 -38 28 -6 -34 84 -92 135 -97 138 -158 129z"/>
<path d="M1940 763 c-34 -32 -123 -190 -115 -203 3 -5 42 18 86 53 44 34 94
71 110 82 16 11 32 30 35 43 15 55 -64 72 -116 25z"/>
<path d="M3461 767 c-13 -6 -23 -15 -22 -19 0 -5 1 -14 1 -20 0 -7 20 -28 44
-45 50 -38 75 -60 134 -115 24 -22 45 -38 48 -36 2 3 -11 33 -31 68 -19 34
-35 68 -35 76 0 8 -4 14 -10 14 -5 0 -10 7 -10 15 0 8 -4 15 -10 15 -5 0 -10
7 -10 15 0 8 -13 21 -30 30 -35 18 -38 18 -69 2z"/>
<path d="M2084 720 c-16 -16 -35 -51 -43 -77 -7 -26 -19 -67 -26 -90 -8 -24
-10 -43 -5 -43 15 0 161 143 176 172 34 66 -46 96 -102 38z"/>
<path d="M3304 726 c-3 -8 3 -30 13 -50 27 -52 156 -196 167 -186 5 6 5 14 -1
22 -6 7 -19 42 -28 78 -23 82 -39 115 -67 134 -28 20 -77 21 -84 2z"/>
<path d="M2227 702 c-10 -11 -17 -35 -17 -60 0 -22 -5 -63 -12 -91 -13 -60 -5
-76 23 -41 115 146 135 184 108 201 -25 16 -85 10 -102 -9z"/>
<path d="M2415 700 c-37 -14 -45 -37 -53 -139 -8 -106 -3 -136 19 -114 31 31
119 195 119 222 0 33 -42 49 -85 31z"/>
<path d="M3160 682 c0 -26 50 -107 119 -192 l21 -25 0 25 c0 14 -5 63 -11 110
-12 96 -22 109 -86 110 -41 0 -43 -2 -43 -28z"/>
<path d="M3013 693 c-31 -12 -3 -94 77 -227 21 -34 25 -37 31 -20 9 23 11 180
3 210 -9 34 -70 54 -111 37z"/>
<path d="M2543 671 c-9 -15 -10 -41 -2 -108 15 -120 17 -125 38 -83 40 82 71
173 66 191 -9 27 -85 27 -102 0z"/>
<path d="M2691 671 c-12 -21 -3 -77 27 -186 20 -72 35 -88 40 -45 2 14 15 59
28 100 39 122 31 150 -43 150 -31 0 -45 -5 -52 -19z"/>
<path d="M2854 675 c-8 -20 -3 -41 39 -158 19 -54 38 -94 41 -88 4 5 12 59 18
120 9 88 9 113 -1 125 -18 21 -90 22 -97 1z"/>
</g>
</svg>
